<?xml version="1.0" encoding="utf-8"?>
<!-- Generator: Adobe Illustrator 16.0.0, SVG Export Plug-In . SVG Version: 6.00 Build 0)  -->
<!DOCTYPE svg PUBLIC "-//W3C//DTD SVG 1.1//EN" "http://www.w3.org/Graphics/SVG/1.1/DTD/svg11.dtd">
<svg version="1.1" id="Layer_1" xmlns="http://www.w3.org/2000/svg" xmlns:xlink="http://www.w3.org/1999/xlink" x="0px" y="0px"
	 width="7.396px" height="7.458px" viewBox="0 0 7.396 7.458" enable-background="new 0 0 7.396 7.458" xml:space="preserve">
<path fill="#FFFFFF" d="M5.172,3.634L2.611,1.859v3.857l2.567-1.777c0,0,0.078-0.088,0.078-0.15
	C5.256,3.728,5.172,3.634,5.172,3.634z M4.69,3.868L2.932,5.084V2.508l1.762,1.197c0,0,0.055,0.05,0.055,0.083
	S4.69,3.868,4.69,3.868z"/>
<path fill="#FFFFFF" d="M3.693,0.204c-1.979,0-3.583,1.605-3.583,3.583c0,1.979,1.604,3.584,3.583,3.584
	c1.979,0,3.583-1.605,3.583-3.584C7.276,1.809,5.672,0.204,3.693,0.204z M3.693,7.063c-1.809,0-3.276-1.467-3.276-3.276
	s1.467-3.276,3.276-3.276c1.81,0,3.276,1.467,3.276,3.276S5.502,7.063,3.693,7.063z"/>
</svg>
