<?xml version="1.0" encoding="utf-8"?>
<!-- Generator: Adobe Illustrator 16.0.0, SVG Export Plug-In . SVG Version: 6.00 Build 0)  -->
<!DOCTYPE svg PUBLIC "-//W3C//DTD SVG 1.1//EN" "http://www.w3.org/Graphics/SVG/1.1/DTD/svg11.dtd">
<svg version="1.1" id="Forma_1_1_" xmlns="http://www.w3.org/2000/svg" xmlns:xlink="http://www.w3.org/1999/xlink" x="0px" y="0px"
	 width="24px" height="24px" viewBox="0 0 24 24" enable-background="new 0 0 24 24" xml:space="preserve">
<g id="Forma_1">
	<g>
		<path fill="#F0EEEB" d="M23.708,22.134l-5.542-5.542c1.373-1.675,2.201-3.82,2.201-6.157c0-5.363-4.352-9.715-9.714-9.715
			c-5.368,0-9.715,4.352-9.715,9.715c0,5.362,4.347,9.714,9.715,9.714c2.338,0,4.479-0.823,6.153-2.196l5.541,5.537
			c0.377,0.376,0.983,0.376,1.36,0C24.084,23.117,24.084,22.506,23.708,22.134z M10.653,18.215c-4.296,0-7.786-3.49-7.786-7.78
			c0-4.291,3.49-7.786,7.786-7.786c4.29,0,7.785,3.495,7.785,7.786C18.438,14.725,14.943,18.215,10.653,18.215z"/>
	</g>
</g>
</svg>
